<svg width="259" height="117" viewBox="0 0 259 117" fill="none" xmlns="http://www.w3.org/2000/svg">
<path d="M70 0H189V57.5C189 90.3609 162.361 117 129.5 117V117C96.6391 117 70 90.3609 70 57.5V0Z" fill="#E2E8F0"/>
<path fill-rule="evenodd" clip-rule="evenodd" d="M69.4115 62H70V54V0H16C45.8234 0 70 24.1766 70 54C70 56.7183 69.7992 59.3896 69.4115 62ZM11 0H0V1.12119C3.55153 0.3862 7.23067 0 11 0Z" fill="#E2E8F0"/>
<path fill-rule="evenodd" clip-rule="evenodd" d="M189.589 62H189V54V0H243C213.177 0 189 24.1766 189 54C189 56.7183 189.201 59.3896 189.589 62ZM248 0H259V1.12119C255.448 0.3862 251.769 0 248 0Z" fill="#E2E8F0"/>
</svg>
